<?xml version="1.0" encoding="UTF-8"?>
<svg width="184px" height="650px" viewBox="0 0 184 650" version="1.1" xmlns="http://www.w3.org/2000/svg" xmlns:xlink="http://www.w3.org/1999/xlink">
    <!-- Generator: Sketch 39 (31667) - http://www.bohemiancoding.com/sketch -->
    <title>feather</title>
    <desc>Created with Sketch.</desc>
    <defs></defs>
    <g id="Page-1" stroke="none" stroke-width="1" fill="none" fill-rule="evenodd">
        <g id="feather">
            <g id="Layer_1">
                <g id="Group">
                    <g transform="translate(4.361929, 4.333333)" id="Shape">
                        <polygon fill="#FFCF5C" points="87.3825153 460.07 87.3825153 433.333333 87.644231 433.333333 174.621087 372.233333 174.621087 471.9 87.644231 533 87.3825153 532.826667"></polygon>
                        <polygon fill="#FF775C" points="87.3825153 412.836667 87.3825153 386.1 87.644231 386.1 174.621087 325 174.621087 372.233333 87.644231 433.333333 87.3825153 433.333333"></polygon>
                        <polygon fill="#B79CD0" points="174.621087 250.9 174.621087 325 87.644231 386.1 87.3825153 386.1 87.3825153 311.826667 87.644231 312"></polygon>
                        <polygon fill="#FF775C" points="174.621087 204.1 174.621087 250.9 87.644231 312 87.3825153 311.826667 87.3825153 268.666667 87.3825153 265.07 87.644231 265.243333"></polygon>
                        <polygon fill="#73D5A3" points="174.621087 160.333333 174.621087 204.1 87.644231 265.243333 87.3825153 265.07 87.3825153 221.26 87.644231 221.433333 120.009741 198.683333 149.97619 177.666667"></polygon>
                        <polygon fill="#B79CD0" points="174.621087 154.136667 174.621087 160.333333 149.97619 177.666667 145.614262 136.933333"></polygon>
                        <polygon fill="#73D5A3" points="174.621087 116.566667 174.621087 154.136667 145.614262 136.933333 145.570643 136.89"></polygon>
                        <path d="M174.621087,86.6666667 L174.621087,116.566667 L145.570643,136.89 L115.77867,157.776667 L87.3825153,177.666667 L0.143943643,116.566667 L0.143943643,86.6666667 C0.143943643,38.7833333 39.1832045,0 87.3825153,0 C111.460361,0 133.270004,9.70666667 149.060185,25.3933333 C164.850367,41.08 174.621087,62.7466667 174.621087,86.6666667 L174.621087,86.6666667 Z" fill="#FF775C"></path>
                        <polygon fill="#FFCF5C" points="145.614262 136.933333 149.97619 177.666667 115.865909 157.863333 115.77867 157.776667 145.570643 136.89"></polygon>
                        <polygon fill="#FF775C" points="149.97619 177.666667 120.009741 198.683333 115.865909 157.863333"></polygon>
                        <polygon fill="#B79CD0" points="115.865909 157.863333 120.009741 198.683333 87.3825153 177.666667 115.77867 157.776667"></polygon>
                        <polygon fill="#73D5A3" points="120.009741 198.683333 87.644231 221.433333 87.3825153 221.26 87.3825153 177.666667"></polygon>
                        <polygon fill="#B79CD0" points="87.3825153 460.07 87.3825153 532.826667 0.143943643 471.9 0.143943643 399.1"></polygon>
                        <polygon fill="#FF775C" points="87.3825153 433.333333 87.3825153 460.07 0.143943643 399.1 0.143943643 351.91 87.3825153 412.836667"></polygon>
                        <polygon fill="#73D5A3" points="87.3825153 386.1 87.3825153 412.836667 0.143943643 351.91 0.143943643 250.9 24.8324594 268.146667 24.7888401 268.666667 25.225033 268.406667 54.7989088 289.076667 54.7552895 289.683333 55.2351016 289.38 87.3825153 311.826667"></polygon>
                        <polygon fill="#FFCF5C" points="87.3825153 221.26 87.3825153 265.07 60.6438931 246.393333 30.8519209 225.55 0.143943643 204.1 0.143943643 160.333333"></polygon>
                        <polygon fill="#B79CD0" points="87.3825153 177.666667 87.3825153 221.26 0.143943643 160.333333 0.143943643 116.566667"></polygon>
                        <g transform="translate(0.000000, 203.666667)">
                            <polygon fill="#73D5A3" points="60.6438931 42.7266667 25.225033 64.74 30.8519209 21.8833333"></polygon>
                            <polygon fill="#FFCF5C" points="30.8519209 21.8833333 25.225033 64.74 24.8324594 64.48 0.143943643 47.2333333 0.143943643 41.47"></polygon>
                            <polygon fill="#FFCF5C" points="87.3825153 61.4033333 87.3825153 65 54.7989088 85.41 60.6438931 42.7266667"></polygon>
                            <polygon fill="#B79CD0" points="87.3825153 65 87.3825153 108.16 55.2351016 85.7133333 54.7989088 85.41"></polygon>
                            <polygon fill="#FF775C" points="60.6438931 42.7266667 54.7989088 85.41 25.225033 64.74"></polygon>
                            <polygon fill="#B79CD0" points="30.8519209 21.8833333 0.143943643 41.47 0.143943643 0.433333333"></polygon>
                        </g>
                    </g>
                    <path d="M156.505998,26.663 C139.197865,9.46833333 116.197416,0 91.7444439,0 C41.2376728,0 0.143943643,40.82 0.143943643,91 L0.143943643,476.233333 C0.143943643,477.641667 0.833128359,478.967667 1.99776329,479.778 L87.3825153,539.400333 L87.3825153,645.666667 C87.3825153,648.063 89.3322974,650 91.7444439,650 C94.1565904,650 96.1063725,648.063 96.1063725,645.666667 L96.1063725,539.76 L181.499848,479.769333 C182.660121,478.954667 183.344944,477.637333 183.344944,476.233333 L183.344944,91 C183.344944,66.703 173.809768,43.8533333 156.505998,26.663 L156.505998,26.663 Z M174.621087,327.093 L96.1063725,382.247667 L96.1063725,318.755667 L174.621087,263.601 L174.621087,327.093 L174.621087,327.093 Z M125.431618,170.235 L146.272913,182.338 L127.965899,195.199333 L125.431618,170.235 L125.431618,170.235 Z M155.236676,149.435 L174.621087,160.931333 L174.621087,162.422 L157.884367,174.178333 L155.236676,149.435 L155.236676,149.435 Z M37.4646046,272.952333 L59.4312769,259.302333 L55.8065143,285.761667 L37.4646046,272.952333 L37.4646046,272.952333 Z M8.86780081,251.836 L29.6785621,238.563 L26.1977431,265.083 L8.87216274,252.98 L8.87216274,251.836 L8.86780081,251.836 Z M57.1369025,250.505667 L35.1091632,264.194667 L38.6074299,237.553333 L57.1369025,250.505667 L57.1369025,250.505667 Z M68.3645067,258.353333 L86.6017301,271.097667 L64.744106,284.786667 L68.3645067,258.353333 L68.3645067,258.353333 Z M87.3825153,280.852 L87.3825153,307.814 L67.0297565,293.600667 L87.3825153,280.852 L87.3825153,280.852 Z M96.1063725,189.973333 L116.607437,203.177 L96.1063725,217.576667 L96.1063725,189.973333 L96.1063725,189.973333 Z M87.3825153,261.057333 L37.5780147,226.252 C37.564929,226.243333 37.560567,226.230333 37.5474812,226.226 C37.5431193,226.221667 37.5343955,226.221667 37.5300335,226.217333 L8.86780081,206.184333 L8.86780081,173.008333 L87.3825153,227.833667 L87.3825153,261.057333 L87.3825153,261.057333 Z M27.3929115,229.723 L8.86780081,241.54 L8.86780081,216.779333 L27.3929115,229.723 L27.3929115,229.723 Z M8.86780081,263.575 L56.7661386,297.019667 C56.7792244,297.028333 56.7879482,297.041333 56.8053959,297.05 C56.8141198,297.054333 56.8228436,297.054333 56.8315675,297.063 L87.3868772,318.400333 L87.3868772,408.824 L8.87216274,353.99 L8.87216274,263.575 L8.86780081,263.575 Z M174.621087,252.988667 L96.1063725,308.143333 L96.1063725,271.999 L174.621087,216.805333 L174.621087,252.988667 L174.621087,252.988667 Z M174.621087,206.193 L96.1063725,261.386667 L96.1063725,228.193333 L156.645579,185.670333 C156.663027,185.657333 156.684837,185.653 156.706646,185.644333 C156.741542,185.622667 156.763351,185.588 156.798247,185.566333 L174.621087,173.043 L174.621087,206.193 L174.621087,206.193 Z M174.621087,150.839 L157.93671,140.941667 L174.621087,129.254667 L174.621087,150.839 L174.621087,150.839 Z M146.416857,149.010333 L149.081995,173.931333 L128.170909,161.789333 L146.416857,149.010333 L146.416857,149.010333 Z M116.624885,169.875333 L119.12427,194.467 L99.5304864,181.848333 L116.624885,169.875333 L116.624885,169.875333 Z M87.3825153,217.251667 L8.86780081,162.417667 L8.86780081,129.259 L87.3825153,184.249 L87.3825153,217.251667 L87.3825153,217.251667 Z M8.86780081,364.589333 L87.3825153,419.419 L87.3825153,456.057333 L8.86780081,401.184333 L8.86780081,364.589333 L8.86780081,364.589333 Z M96.1063725,418.171 C96.193611,417.720333 96.1630775,417.261 96.1063725,416.801667 L96.1063725,392.855667 L174.621087,337.701 L174.621087,374.317667 L96.1063725,429.472333 L96.1063725,418.171 L96.1063725,418.171 Z M91.7444439,8.66666667 C113.868146,8.66666667 134.678907,17.2336667 150.338231,32.7903333 C165.997554,48.347 174.621087,69.017 174.621087,91 L174.621087,118.651 L91.7444439,176.696 L8.86780081,118.651 L8.86780081,91 C8.86780081,45.5996667 46.0445181,8.66666667 91.7444439,8.66666667 L91.7444439,8.66666667 Z M8.86780081,473.98 L8.86780081,411.779333 L87.3825153,466.652333 L87.3825153,528.818333 L8.86780081,473.98 L8.86780081,473.98 Z M96.1063725,529.147667 L96.1063725,465.408667 C96.193611,464.958 96.1630775,464.498667 96.1063725,464.039333 L96.1063725,440.093333 L174.621087,384.938667 L174.621087,473.993 L96.1063725,529.147667 L96.1063725,529.147667 Z" id="Shape" fill="#6C485E"></path>
                    <path d="M91.7444439,0.0173333333 C41.2376728,0.0173333333 0.143943643,40.82 0.143943643,91 L0.143943643,476.233333 C0.143943643,477.646 0.833128359,478.972 1.99776329,479.778 L87.3868772,539.404667 L87.3868772,645.666667 C87.3868772,648.063 89.3366593,650 91.7488058,650 L92.0061596,649.952333 L92.0061596,0.0173333333 L91.7444439,0.0173333333" id="Shape" fill="#7C4A3C" opacity="0.149"></path>
                </g>
            </g>
        </g>
    </g>
</svg>